
<svg xmlns="http://www.w3.org/2000/svg" width="50" height="50" viewBox="0 0 50 50">
  <g fill="none" fill-rule="evenodd">
    <path fill="white" d="M12.544646,6.2703354 C12.5687453,6.49542857 12.5945839,6.72027329 12.6221615,6.94486957 L22.7821615,7.22536646 C22.7856398,7.16996273 22.7893665,7.11455901 22.7928447,7.05915528 L22.7928447,7.06238509 C22.7988075,6.96424845 22.8045217,6.86636025 22.8104845,6.7682236 C22.8159503,6.66934161 22.8211677,6.57045963 22.8263851,6.47182609 C22.8288696,6.42263354 22.831354,6.37368944 22.8335901,6.32449689 L19.2335901,4.24598758 C18.2487453,3.67754037 17.0355776,3.67754037 16.0507329,4.24598758 L12.544646,6.2703354 Z M13.2539627,10.7108323 L22.4065093,11.0087205 C22.4129689,10.9625093 22.4194286,10.9160497 22.4258882,10.8698385 L22.4251429,10.8735652 L22.4405466,10.7592795 C22.450236,10.6852422 22.459677,10.611205 22.4688696,10.5374161 C22.4760745,10.4800248 22.4830311,10.4226335 22.4897391,10.3652422 C22.4976894,10.3076025 22.5051429,10.2497143 22.5125963,10.1920745 C22.5227826,10.1128199 22.5327205,10.0335652 22.5426584,9.95431056 C22.5426584,9.95306832 22.541913,9.95903106 22.5421615,9.95778882 C22.5518509,9.87679503 22.5615404,9.7955528 22.5709814,9.71455901 C22.5709814,9.71331677 22.570236,9.7192795 22.5704845,9.71803727 C22.598559,9.46834783 22.6251429,9.21840994 22.6487453,8.9682236 C22.6733416,8.70685714 22.695205,8.44524224 22.7148323,8.18337888 L12.8330932,8.45617391 C12.951354,9.21021118 13.0899876,9.96126708 13.2532174,10.7068571 L13.2539627,10.7108323 Z M14.3508571,14.4402733 L21.7593043,14.7177888 C21.8104845,14.4996522 21.8549565,14.2802733 21.8954534,14.0599006 C21.9024099,14.0213913 21.9031553,14.0216398 21.9116025,13.9811429 C21.9227826,13.9274783 21.9334658,13.8738137 21.9443975,13.8201491 C21.9769441,13.6526957 22.0072547,13.4849938 22.0353292,13.3165466 C22.0400497,13.2879752 22.0460124,13.2594037 22.0514783,13.2308323 C22.0569441,13.2012671 22.0621615,13.1717019 22.0676273,13.1421366 C22.0889938,13.0223851 22.1098634,12.9026335 22.1292422,12.7823851 C22.1426584,12.6996522 22.1550807,12.6166708 22.1677516,12.5339379 C22.1811677,12.4601491 22.194087,12.3863602 22.2070062,12.3125714 C22.2263851,12.1962981 22.2455155,12.0797764 22.2636522,11.9632547 L13.6301118,12.2442484 C13.7150807,12.554559 13.805764,12.8631304 13.9029068,13.1699627 C14.0383106,13.5977888 14.1863851,14.0223851 14.3508571,14.4402733 Z M18.9990559,18.9605217 C19.0032795,18.959528 19.0077516,18.9587826 19.0119752,18.9577888 C19.1968199,18.9170435 19.3727205,18.8407702 19.5354534,18.7453665 C19.6683727,18.667354 19.7920994,18.575677 19.9086211,18.4750559 C20.0460124,18.3565466 20.172472,18.2261118 20.2875031,18.0854907 C20.3173168,18.0489689 20.3463851,18.0119503 20.3747081,17.9741863 C20.3923478,17.9508323 20.4089938,17.9269814 20.4263851,17.9036273 C20.4534658,17.8668571 20.4805466,17.8303354 20.506882,17.7930683 C20.5933416,17.6695901 20.6723478,17.5413913 20.7461366,17.4102112 C20.7533416,17.3975404 20.7612919,17.3853665 20.7687453,17.3729441 C20.7764472,17.3605217 20.7839006,17.3478509 20.7916025,17.3351801 C20.888,17.1719503 20.9769441,17.0047453 21.057441,16.8333168 C21.109118,16.7235031 21.1568199,16.6119503 21.2027826,16.4999006 C21.2243975,16.4474783 21.2465093,16.3955528 21.2673789,16.3431304 C21.3029068,16.2536894 21.3366957,16.1637516 21.3689938,16.0730683 C21.4176894,15.9361739 21.4624099,15.7980373 21.5041491,15.6589068 L15.0204224,15.9016398 C15.1193043,16.086236 15.2236522,16.2676025 15.3342112,16.4454907 C15.537441,16.7724472 15.7617888,17.0874783 16.0154534,17.3774161 C16.3652671,17.7771677 16.7766957,18.1359255 17.2601739,18.3637516 C17.3968199,18.4283478 17.5386832,18.481764 17.6840248,18.5227578 C17.7297391,18.5354286 17.7759503,18.5471056 17.8224099,18.5575404 C17.8663851,18.5672298 17.9106087,18.5761739 17.9545839,18.5858634 C17.9968199,18.5955528 17.9968199,18.5955528 18.0390559,18.6057391 C18.1232795,18.6268571 18.2067578,18.6494658 18.2897391,18.6750559 C18.4537143,18.7254907 18.6147081,18.7853665 18.7719752,18.8541863 C18.8487453,18.8874783 18.9242733,18.9230062 18.9990559,18.9605217 Z M13.0450186,27.4549317 L21.5347081,27.152323 C21.448,26.8377888 21.3560745,26.5242484 21.2581863,26.2126957 C21.1063851,25.7304596 20.9404224,25.2517019 20.754087,24.7813913 L13.5876273,24.4703354 C13.5747081,24.5220124 13.5625342,24.5736894 13.5503602,24.6253665 C13.4929689,24.8728199 13.4437764,25.121764 13.4002981,25.3717019 C13.3876273,25.4328199 13.3757019,25.4939379 13.3637764,25.5555528 C13.3284969,25.7389068 13.2957019,25.9232547 13.2666335,26.1080994 C13.2581863,26.1535652 13.2499876,26.1992795 13.2417888,26.2449938 C13.2258882,26.3359255 13.2099876,26.4268571 13.1953292,26.5182857 C13.175205,26.6415155 13.1565714,26.7649938 13.1381863,26.888472 C13.1262609,26.9555528 13.1148323,27.0226335 13.1034037,27.0897143 C13.0830311,27.2114534 13.0636522,27.3329441 13.0450186,27.4549317 Z M12.5916025,31.2303354 L22.3543354,30.9309565 C22.2370683,30.2348075 22.1041491,29.5411429 21.9525963,28.851205 C21.9411677,28.7990311 21.9294907,28.7468571 21.9178137,28.6946832 L12.909118,28.3736894 C12.8768199,28.6042484 12.8467578,28.8350559 12.8194286,29.0661118 C12.8107329,29.1307081 12.8022857,29.1955528 12.7938385,29.2603975 C12.7106087,29.9150559 12.6432795,30.5721988 12.5916025,31.2303354 Z M10.3245217,32.2054907 C10.3416646,31.994559 10.3600497,31.782882 10.3799255,31.5719503 C10.3848944,31.5187826 10.3911056,31.4656149 10.3968199,31.4121988 C10.4022857,31.3635031 10.4077516,31.3140621 10.4132174,31.2648696 C10.4343354,31.0735652 10.4569441,30.8822609 10.4805466,30.691205 C10.5361988,30.239528 10.598559,29.7888447 10.6686211,29.3386584 C10.695205,29.1692174 10.7230311,28.9997764 10.751354,28.8303354 L10.7650186,28.7505839 C10.8445217,28.3247453 10.9314783,27.9001491 11.0276273,27.4777888 C11.0415404,27.4216398 11.0557019,27.3652422 11.0698634,27.3088447 C11.1158261,27.1302112 11.1622857,26.952323 11.2112298,26.7741863 C11.2301118,26.705118 11.2489938,26.6375404 11.2686211,26.568472 C11.2790559,26.5314534 11.2884969,26.4941863 11.3001739,26.4576646 C11.3816646,26.2027578 11.4673789,25.9493416 11.556323,25.6964224 L11.5744596,25.6459876 C11.6686211,25.3997764 11.7672547,25.1550559 11.8698634,24.9120745 L11.8795528,24.8897143 C12.0072547,24.6129441 12.139677,24.3381615 12.2798012,24.0671056 C12.3630311,23.9056149 12.4492422,23.7458634 12.5371925,23.5871056 L12.5583106,23.5495901 C12.7076273,23.3003975 12.8639006,23.0551801 13.0283727,22.8154286 C13.0884969,22.7282236 13.1496149,22.6410186 13.2122236,22.5550559 C13.2373168,22.5202733 13.2626584,22.4847453 13.2889938,22.4507081 C13.5180621,22.1530683 13.7617888,21.8661118 14.026882,21.6000248 C14.0390559,21.587354 14.052472,21.5761739 14.0651429,21.5644969 C14.0768199,21.5540621 14.0884969,21.5433789 14.1001739,21.5326957 C14.1568199,21.481764 14.2142112,21.4318261 14.2720994,21.382882 C14.3553292,21.312323 14.4398012,21.2435031 14.5267578,21.177913 C14.5508571,21.1597764 14.5757019,21.1426335 14.6002981,21.1254907 C14.6318509,21.1036273 14.6636522,21.0815155 14.6954534,21.0599006 C14.8025342,20.9878509 14.9120994,20.9190311 15.0241491,20.8554286 C15.0959503,20.8144348 15.1687453,20.7741863 15.2430311,20.7381615 C15.3329689,20.6946832 15.4241491,20.6539379 15.5168199,20.6176646 C15.6445217,20.5672298 15.7749565,20.5247453 15.9083727,20.4926957 C16.0005466,20.470087 16.0939627,20.4529441 16.1883727,20.4432547 C16.2472547,20.4372919 16.306882,20.4338137 16.3660124,20.4370435 L16.3694907,20.4372919 L16.3829068,20.4521988 L16.3684969,20.4653665 C16.3590559,20.4653665 16.3496149,20.4661118 16.339677,20.4668571 C16.3361988,20.4668571 16.3262609,20.4676025 16.3294907,20.4676025 C16.3158261,20.4688447 16.3031553,20.4703354 16.2897391,20.472323 C16.1039006,20.4984099 15.9252671,20.5657391 15.7602981,20.6531925 C15.6171925,20.7292174 15.4845217,20.8223851 15.360795,20.926236 C15.3103602,20.9689689 15.2611677,21.0124472 15.2137143,21.0581615 C15.120795,21.1476025 15.0343354,21.2435031 14.9538385,21.3441242 C14.9245217,21.3808944 14.8957019,21.4184099 14.8678758,21.4566708 C14.8586832,21.4690932 14.8499876,21.481764 14.840795,21.4941863 C14.8055155,21.5421366 14.7704845,21.5898385 14.7369441,21.6390311 C14.6599255,21.7520745 14.5893665,21.8695901 14.5232795,21.9890932 C14.516323,22.001764 14.5083727,22.0139379 14.5009193,22.0261118 C14.4934658,22.0387826 14.4860124,22.0514534 14.478559,22.0641242 C14.4084969,22.185118 14.3421615,22.3078509 14.280795,22.4335652 C14.205764,22.5871056 14.1381863,22.7441242 14.0750807,22.9031304 C14.0606708,22.9394037 14.0455155,22.9751801 14.031354,23.0117019 C13.9960745,23.1008944 13.9625342,23.1910807 13.9307329,23.2815155 C13.8994286,23.371205 13.8693665,23.4608944 13.8410435,23.5513292 L20.0643975,23.2812671 C19.906882,22.9890932 19.7364472,22.7036273 19.5481242,22.430087 C19.3694907,22.1704596 19.1744596,21.9207702 18.9578137,21.6914534 C18.6604224,21.3771677 18.3173168,21.095677 17.9217888,20.914559 C17.8084969,20.8626335 17.6912298,20.8194037 17.5712298,20.7861118 C17.4939627,20.7647453 17.4154534,20.7493416 17.3369441,20.7321988 C17.2939627,20.7222609 17.2939627,20.7222609 17.2512298,20.7120745 C17.1518509,20.6874783 17.0529689,20.6608944 16.9550807,20.6303354 C16.7757019,20.5746832 16.5993043,20.5085963 16.4273789,20.4325714 C16.2571925,20.3577888 16.0912298,20.2733168 15.930236,20.1803975 C15.8070062,20.1093416 15.6867578,20.0335652 15.5694907,19.9533168 C14.8261366,19.444 14.2129689,18.7644969 13.7048944,18.0248696 C13.6306087,17.9165466 13.558559,17.8067329 13.4882484,17.6959255 C13.3858882,17.5339379 13.2877516,17.3694658 13.1935901,17.2027578 C13.0688696,16.9821366 12.9508571,16.7575404 12.838559,16.5299627 C12.6979379,16.2449938 12.5667578,15.9553043 12.4432795,15.6623851 C12.276323,15.2661118 12.1237764,14.8641242 11.9829068,14.4581615 C11.8005466,13.9331925 11.6378137,13.4015155 11.490236,12.8658634 C11.297441,12.1657391 11.1307329,11.4586584 10.9839006,10.7476025 C10.8000497,9.85617391 10.6470062,8.95828571 10.5210435,8.05691925 C10.4944596,7.86586335 10.4688696,7.67431056 10.4442733,7.48300621 L4.89942857,10.6842484 C3.91458385,11.2526957 3.30812422,12.3036273 3.30812422,13.4407702 L3.30812422,26.3170435 C3.30812422,27.4541863 3.91458385,28.5048696 4.89942857,29.0735652 L10.3245217,32.2054907 Z M24.8122236,32.2909565 L30.3848944,29.0738137 C31.3697391,28.505118 31.9761988,27.4541863 31.9761988,26.3170435 L31.9761988,13.4407702 C31.9761988,12.3036273 31.3697391,11.2526957 30.3848944,10.6842484 L24.9508571,7.54685714 C24.9436522,7.63331677 24.9364472,7.71952795 24.9287453,7.80573913 L24.9242733,7.85667081 C24.8278758,8.80226087 24.7053913,9.74511801 24.5439006,10.681764 C24.5327205,10.7421366 24.5210435,10.8025093 24.5096149,10.862882 C24.4569441,11.1331925 24.4020373,11.4032547 24.3431553,11.672323 C24.3225342,11.7657391 24.3024099,11.8594037 24.2800497,11.9525714 C24.2733416,11.980646 24.2402981,12.1095901 24.2398012,12.1113292 C24.217441,12.1987826 24.2072547,12.2377888 24.1841491,12.3247453 C24.1297391,12.5307081 24.0725963,12.735677 24.0134658,12.9403975 L24.0042733,12.9717019 C23.9155776,13.2435031 23.8234037,13.5138137 23.725764,13.7823851 C23.7143354,13.8139379 23.7014161,13.8449938 23.6889938,13.8762981 C23.6554534,13.9607702 23.6527205,13.9677267 23.6189317,14.0514534 C23.5530932,14.2144348 23.485764,14.3766708 23.4154534,14.537913 C23.4015404,14.5697143 23.3856398,14.6007702 23.3707329,14.6320745 C23.3583106,14.6584099 23.3456398,14.6847453 23.3332174,14.7108323 C23.2842733,14.8126957 23.2343354,14.9140621 23.1839006,15.0151801 C23.0877516,15.2067329 22.9886211,15.3965466 22.8860124,15.5846211 C22.8378137,15.6728199 22.7883727,15.7602733 22.7386832,15.8474783 L22.7255155,15.8703354 C22.5722236,16.1192795 22.4129689,16.3642484 22.2450186,16.6035031 C22.1843975,16.6899627 22.1227826,16.7754286 22.0599255,16.8599006 C22.0350807,16.893441 22.0099876,16.9279752 21.9841491,16.9607702 C21.7520994,17.2546832 21.5066335,17.5386584 21.2400497,17.8022609 C21.2276273,17.8146832 21.2139627,17.8261118 21.200795,17.8377888 C21.1660124,17.8690932 21.1309814,17.9001491 21.0954534,17.9309565 C20.9863851,18.0256149 20.8743354,18.116795 20.7600497,18.2049938 C20.7436522,18.2174161 20.7439006,18.2174161 20.7275031,18.2293416 C20.5086211,18.3853665 20.2817888,18.5299627 20.0432795,18.6541863 C19.9841491,18.6849938 19.923528,18.7135652 19.8629068,18.7411429 C19.7652671,18.7853665 19.6661366,18.8258634 19.5652671,18.8616398 C19.4482484,18.9031304 19.3289938,18.9381615 19.2077516,18.964 C19.1580621,18.9746832 19.1081242,18.9836273 19.0576894,18.9903354 C19.1024099,19.013441 19.1466335,19.0372919 19.1906087,19.0618882 C19.2892422,19.116795 19.3858882,19.1751801 19.4805466,19.2365466 C20.2209193,19.7165466 20.8296149,20.3764224 21.3339627,21.0954286 C21.4179379,21.2149317 21.4989317,21.3366708 21.5776894,21.4596522 C21.6812919,21.6218882 21.7804224,21.7868571 21.8755776,21.9535652 C22.0025342,22.175677 22.1222857,22.401764 22.2360745,22.6308323 C22.379677,22.9192795 22.5135901,23.2121988 22.6398012,23.5085963 C22.8114783,23.9115776 22.9684969,24.3207702 23.114087,24.7336894 C23.314087,25.3013913 23.4922236,25.8770435 23.6539627,26.4566708 C23.8636522,27.2087205 24.0452671,27.968472 24.2062609,28.7321988 C24.4060124,29.681764 24.5732174,30.6382857 24.7148323,31.5977888 C24.7488696,31.8288447 24.7811677,32.0596522 24.8122236,32.2909565 Z M12.4470062,33.4310807 L16.0507329,35.5115776 C17.0355776,36.0802733 18.2487453,36.0802733 19.2335901,35.5115776 L22.7180621,33.4999006 C22.6780621,33.1550559 22.6345839,32.8107081 22.5876273,32.4668571 L12.5232795,32.1587826 C12.4932174,32.5823851 12.4676273,33.0064845 12.4470062,33.4310807 Z M24.6112298,3.53120497 L33.6927205,8.77443478 C34.6775652,9.34288199 35.2842733,10.3938137 35.2842733,11.5309565 L35.2842733,28.2268571 C35.2842733,29.3642484 34.6775652,30.4146832 33.6927205,30.9833789 C30.3404224,32.9187826 22.5858882,37.3958012 19.2335901,39.331205 C18.2487453,39.8999006 17.0355776,39.8999006 16.0507329,39.331205 C12.6984348,37.3958012 4.94390062,32.9187826 1.59160248,30.9833789 C0.606757764,30.4146832 4.9689441e-05,29.3642484 4.9689441e-05,28.2268571 L4.9689441e-05,11.5309565 C4.9689441e-05,10.3938137 0.606757764,9.34288199 1.59160248,8.77443478 C4.94390062,6.83903106 12.6984348,2.36201242 16.0507329,0.426360248 C17.0355776,-0.142086957 18.2487453,-0.142086957 19.2335901,0.426360248 L24.4070062,3.41344099 L24.4658882,3.42685714 C24.5227826,3.46735404 24.5704845,3.50114286 24.6112298,3.53120497 Z"/>
    <!-- <path fill="#383838" d="M4.28027329 20.7028075C4.29890683 20.8707578 4.24300621 20.973118 4.11281988 21.0098882 3.85219876 21.1030559 3.5729441 21.1634286 3.27530435 21.1917516 2.97741615 21.2193292 2.71679503 21.2334907 2.49368944 21.2334907 1.67455901 21.2334907 1.13021118 21.0240497.860397516 20.6051677.590583851 20.1867826.455677019 19.5954783.455677019 18.8327453L.455677019.85336646C.455677019.686161491.539403727.602434783.706857143.602434783L1.51654658.602434783C1.70263354.602434783 1.7955528.686161491 1.7955528.85336646L1.7955528 18.3860373C1.7955528 18.9813168 1.86536646 19.4046708 2.00499379 19.6560994 2.14462112 19.907528 2.45642236 20.0329938 2.94014907 20.0329938 3.12648447 20.0329938 3.30313043 20.0238012 3.47058385 20.0049193 3.63828571 19.9862857 3.79629814 19.9587081 3.94536646 19.9211925 4.00101863 19.9211925 4.05219876 19.925913 4.09890683 19.9351056 4.14536646 19.9445466 4.17791304 19.9957267 4.19654658 20.088646L4.28027329 20.7028075zM17.0665839 13.6957019C17.0665839 12.8581863 16.9920497 12.0437764 16.8432298 11.2529689 16.6944099 10.461913 16.4290683 9.76849689 16.0474534 9.17296894 15.666087 8.57744099 15.1587578 8.09818634 14.5259627 7.73520497 13.8931677 7.3722236 13.0929193 7.19085714 12.1252174 7.19085714 11.2318012 7.19085714 10.4732919 7.36775155 9.84993789 7.72129193 9.2263354 8.0748323 8.72372671 8.54961491 8.34236025 9.14514286 7.96074534 9.74067081 7.68149068 10.424646 7.50484472 11.1970683 7.32795031 11.9694907 7.23950311 12.7744596 7.23950311 13.6119752 7.23950311 14.5424099 7.32322981 15.408 7.49068323 16.2082484 7.65838509 17.0084969 7.9373913 17.7063851 8.32819876 18.3024099 8.71925466 18.8976894 9.2263354 19.3630311 9.84993789 19.6979379 10.4732919 20.0328447 11.2409938 20.2005466 12.1530435 20.2005466 13.1021118 20.2005466 13.8931677 20.0050186 14.5259627 19.6142112 15.1587578 19.2236522 15.6613665 18.716323 16.0335404 18.0927205 16.4057143 17.469118 16.6710559 16.7712298 16.8293168 15.9988075 16.9873292 15.2263851 17.0665839 14.4586832 17.0665839 13.6957019M18.3786335 13.6119752C18.3786335 16.1431553 17.8295652 18.0648944 16.7314286 19.3769441 15.6335404 20.6889938 14.0886957 21.3453913 12.0971429 21.3453913 10.124472 21.3453913 8.60273292 20.6889938 7.53267081 19.3769441 6.4626087 18.0648944 5.92745342 16.1709814 5.92745342 13.6957019 5.92745342 11.2017888 6.49515528 9.30340373 7.63031056 8.00054658 8.76571429 6.69768944 10.2824845 6.04626087 12.1808696 6.04626087 14.1724224 6.04626087 15.7031056 6.70240994 16.7734161 8.01445963 17.8434783 9.32650932 18.3786335 11.1923478 18.3786335 13.6119752M27.1725963 20.1447702C27.3773168 20.1447702 27.6471304 20.1306087 27.9822857 20.1025342 28.3171925 20.0749565 28.6801739 20.0237764 29.0712298 19.9492422 29.4617888 19.8747081 29.8670062 19.7865093 30.2853913 19.6841491 30.7042733 19.5815404 31.1000497 19.4466335 31.4722236 19.2794286L31.4722236 7.88862112C30.764646 7.62849689 30.0294907 7.45160248 29.2667578 7.35843478 28.5032795 7.26551553 27.8518509 7.21880745 27.3122236 7.21880745 26.5865093 7.21880745 25.9164472 7.34924224 25.3022857 7.60961491 24.6878758 7.87023602 24.157441 8.26576398 23.7107329 8.79619876 23.2645217 9.32663354 22.9107329 10.0058882 22.6498634 10.8339627 22.3894907 11.6622857 22.2593043 12.6441491 22.2593043 13.7793043 22.2593043 15.8640248 22.6965714 17.4461366 23.571354 18.5253913 24.4458882 19.604646 25.6463851 20.1447702 27.1725963 20.1447702M27.3122236 6.04613665C28.0938385 6.04613665 28.940795 6.10228571 29.8525963 6.21383851 30.764646 6.3253913 31.6672547 6.55793789 32.5606708 6.91147826 32.7281242 6.98626087 32.8118509 7.1164472 32.8118509 7.30278261L32.8118509 20.1723478C32.8118509 21.4195528 32.6538385 22.4573168 32.3373168 23.2853913 32.0212919 24.1137143 31.5696149 24.7882484 30.9832795 25.3092422 30.3971925 25.8307329 29.6945839 26.2304845 28.8757019 26.5097391 28.0568199 26.7889938 27.1450186 27.0029068 26.1398012 27.1517267 25.9537143 27.1703602 25.851354 27.1149565 25.832472 26.9842733L25.7209193 26.1748323C25.7209193 26.0443975 25.7954534 25.9698634 25.9445217 25.9517267 26.7445217 25.8024099 27.4843975 25.6260124 28.1636522 25.4210435 28.8431553 25.216323 29.4292422 24.9231553 29.9224099 24.5415404 30.4160745 24.1599255 30.7971925 23.6620373 31.0672547 23.0481242 31.3373168 22.4339627 31.4722236 21.6426584 31.4722236 20.675205L31.4722236 20.479677C31.174087 20.5914783 30.8394286 20.698559 30.4672547 20.8009193 30.0948323 20.9032795 29.7084969 20.9870062 29.3084969 21.0518509 28.9082484 21.1169441 28.5129689 21.1730932 28.121913 21.2193043 27.7308571 21.2660124 27.3681242 21.289118 27.0329689 21.289118 25.9537143 21.289118 25.0275031 21.1030311 24.2555776 20.7308571 23.4829068 20.3584348 22.8453913 19.8376894 22.3430311 19.1673789 21.8404224 18.4973168 21.4727205 17.7065093 21.2401739 16.7947081 21.0076273 15.8826584 20.8911056 14.896323 20.8911056 13.835205 20.8911056 12.7373168 21.0168199 11.7134658 21.268 10.7643975 21.5194286 9.81508075 21.9055155 8.99147826 22.4265093 8.29359006 22.9477516 7.59570186 23.6130932 7.04663354 24.4230311 6.64638509 25.2322236 6.24638509 26.1954534 6.04613665 27.3122236 6.04613665M40.6692919 13.9614907C40.6692919 15.4504348 40.9624596 16.4926708 41.548795 17.0881988 42.134882 17.6837267 42.9492919 17.9818634 43.991528 17.9818634 44.2521491 17.9818634 44.6009689 17.9535404 45.0384845 17.8981366 45.4757516 17.8419876 45.8434534 17.7582609 46.1410932 17.6464596L46.1410932 9.85763975C45.657118 9.74583851 45.2292919 9.67130435 44.8568696 9.63428571 44.4846957 9.59701863 44.1495404 9.57838509 43.8521491 9.57838509 42.9025839 9.57838509 42.134882 9.92273292 41.548795 10.6114286 40.9624596 11.2998758 40.6692919 12.416646 40.6692919 13.9614907M36.4536398 13.9055901C36.4536398 12.863354 36.5840745 11.8675776 36.8444472 10.9185093 37.1050683 9.96919255 37.5053168 9.13639752 38.0449441 8.41987578 38.5848199 7.70310559 39.2827081 7.13565217 40.1388571 6.71677019 40.9952547 6.29813665 42.0096646 6.0889441 43.1818385 6.0889441 43.6660621 6.0889441 44.1356273 6.10732919 44.5917764 6.14459627 45.047677 6.18186335 45.5641988 6.26559006 46.1410932 6.3957764L46.1410932 1.28695652C46.1410932 1.06360248 46.1830807.914534161 46.2668075.840248447 46.3505342.765714286 46.5132671.728447205 46.7552547.728447205L49.6029565.728447205C49.807677.728447205 49.9612174.760993789 50.0638261.826086957 50.1659379.891428571 50.217118 1.04496894 50.217118 1.28695652L50.217118 18.4839752 50.217118 19.1122981C50.217118 19.3264596 50.1984845 19.5359006 50.1612174 19.7406211 50.1425839 19.9450932 50.0029565 20.1311801 49.7428323 20.2986335 49.4819627 20.4665839 49.151528 20.6106832 48.751528 20.7314286 48.3512795 20.8524224 47.9045714 20.9595031 47.4114037 21.0524224 46.918236 21.1455901 46.4297888 21.2154037 45.9458137 21.2621118 45.4618385 21.308323 45.0056894 21.3458385 44.5776149 21.3734161 44.1495404 21.4014907 43.796 21.4154037 43.5167453 21.4154037 42.1768696 21.4154037 41.0553789 21.2293168 40.1527702 20.8571429 39.2501615 20.4847205 38.5241988 19.9637267 37.9751304 19.2936646 37.4260621 18.6238509 37.0352547 17.8325466 36.8027081 16.9207453 36.5701615 16.0086957 36.4536398 15.0037267 36.4536398 13.9055901M59.8208447 9.43885714C59.6345093 9.43885714 59.3696646 9.44357764 59.0250683 9.45277019 58.6807205 9.46221118 58.3132671 9.50395031 57.9224596 9.57848447L57.9224596 20.6058137C57.9224596 20.8105342 57.889913 20.9456894 57.8245714 21.0107826 57.7594783 21.0756273 57.5967453 21.1084224 57.3361242 21.1084224L54.4605963 21.1084224C54.2561242 21.1084224 54.1070559 21.0756273 54.0138882 21.0107826 53.9207205 20.9456894 53.8742609 20.8105342 53.8742609 20.6058137L53.8742609 8.6291677C53.8742609 7.99637267 53.9860621 7.49848447 54.2094161 7.13575155 54.4327702 6.77277019 54.8981118 6.51686957 55.6051925 6.36804969 55.7912795 6.33078261 56.0566211 6.29823602 56.4007205 6.27016149 56.7450683 6.2423354 57.1127702 6.21450932 57.5035776 6.18643478 57.8943851 6.1586087 58.2807205 6.13525466 58.662087 6.11662112 59.0437019 6.09798758 59.3741366 6.08879503 59.6531429 6.08879503 60.956 6.08879503 62.0822112 6.21898137 63.0312795 6.47960248 63.9803478 6.7402236 64.7666832 7.15438509 65.3902857 7.72183851 66.0138882 8.28954037 66.4789814 9.03413665 66.7860621 9.95537888 67.0931429 10.8766211 67.2469317 11.9978634 67.2469317 13.319354L67.2469317 20.6058137C67.2469317 20.8105342 67.2141366 20.9456894 67.1490435 21.0107826 67.0839503 21.0756273 66.9212174 21.1084224 66.6605963 21.1084224L63.7569938 21.1084224C63.5525217 21.1084224 63.4034534 21.0756273 63.3105342 21.0107826 63.2173665 20.9456894 63.1709068 20.8105342 63.1709068 20.6058137L63.1709068 13.0681739C63.1709068 12.4540124 63.1197267 11.9235776 63.0173665 11.4768696 62.9150062 11.0301615 62.7381118 10.6532671 62.4869317 10.3461863 62.2355031 10.0391056 61.8914037 9.81103106 61.4538882 9.66221118 61.0166211 9.5133913 60.4720248 9.43885714 59.8208447 9.43885714M79.2514037 14.4639752L77.0459379 14.4639752C76.7853168 14.4639752 76.5060621 14.4826087 76.2084224 14.5198758 75.9105342 14.5571429 75.636 14.6453416 75.3848199 14.7852174 75.1336398 14.9245963 74.9241988 15.1248447 74.7567453 15.3852174 74.5890435 15.6458385 74.5053168 15.9996273 74.5053168 16.446087 74.5053168 17.0975155 74.7239503 17.5536646 75.1614658 17.8140373 75.5987329 18.0746584 76.1897888 18.2050932 76.9341366 18.2050932 77.0459379 18.2050932 77.1947578 18.2003727 77.3808447 18.1911801 77.5669317 18.1817391 77.7671801 18.1631056 77.9810932 18.1350311 78.1952547 18.107205 78.4138882 18.0701863 78.6372422 18.0234783 78.8605963 17.9770186 79.0653168 17.9163975 79.2514037 17.8421118L79.2514037 14.4639752zM83.3274286 19.2935404C83.3274286 19.5357764 83.294882 19.7404969 83.2295404 19.9079503 83.1644472 20.0754037 83.0017143 20.2336646 82.7410932 20.3824845 82.3130186 20.587205 81.8523975 20.7549068 81.3592298 20.8850932 80.8660621 21.0152795 80.3637019 21.1176398 79.8516522 21.1921739 79.3398509 21.2667081 78.8233292 21.3221118 78.302087 21.3596273 77.7810932 21.3968944 77.2879255 21.4152795 76.8225839 21.4152795 75.5569938 21.4152795 74.5100373 21.2945342 73.6817143 21.0525466 72.8536398 20.810559 72.1882981 20.4803727 71.6856894 20.0614907 71.1830807 19.6428571 70.8297888 19.1491925 70.6248199 18.5819876 70.4200994 18.0142857 70.3177391 17.4045963 70.3177391 16.7534161 70.3177391 16.0274534 70.4387329 15.3621118 70.6807205 14.7571429 70.9229565 14.1524224 71.285441 13.6264596 71.7694161 13.1797516 72.2533913 12.7332919 72.8628323 12.3842236 73.5979876 12.1330435 74.3331429 11.8816149 75.203205 11.7561491 76.2084224 11.7561491L79.2792298 11.7561491 79.2792298 11.309441C79.2792298 11.0488199 79.2514037 10.7976398 79.1955031 10.5556522 79.1396025 10.3136646 79.0233292 10.1042236 78.8466832 9.92732919 78.6697888 9.75068323 78.4230807 9.6063354 78.1070559 9.49478261 77.7902857 9.38298137 77.3719006 9.32732919 76.8504099 9.32732919 76.5714037 9.32732919 76.254882 9.34124224 75.9015901 9.36906832 75.5475528 9.39714286 75.1940124 9.43416149 74.840472 9.48086957 74.4866832 9.52732919 74.1425839 9.58322981 73.8074286 9.64832298 73.4725217 9.71341615 73.1746335 9.78322981 72.9140124 9.85776398 72.6722733 9.91341615 72.5045714 9.91341615 72.4116522 9.85776398 72.3184845 9.80186335 72.2533913 9.68086957 72.2161242 9.49478261L71.7694161 7.54049689C71.7135155 7.3357764 71.7092919 7.19142857 71.7555031 7.10770186 71.8022112 7.02397516 71.8998509 6.95416149 72.0486708 6.89850932 72.8861863 6.60062112 73.7656894 6.38645963 74.6869317 6.25627329 75.6081739 6.12608696 76.5246957 6.06074534 77.4367453 6.06074534 79.4653168 6.06074534 80.9542609 6.49354037 81.9035776 7.35913043 82.852646 8.22447205 83.3274286 9.50397516 83.3274286 11.1976398L83.3274286 19.2935404z" transform="translate(39 6)"/> -->
  </g>
</svg>
